<?xml version="1.0" standalone="no"?>
<!DOCTYPE svg PUBLIC "-//W3C//DTD SVG 20010904//EN"
 "http://www.w3.org/TR/2001/REC-SVG-20010904/DTD/svg10.dtd">
<svg version="1.0" xmlns="http://www.w3.org/2000/svg"
 width="300.000000pt" height="300.000000pt" viewBox="0 0 300.000000 300.000000"
 preserveAspectRatio="xMidYMid meet">
<metadata>
Created by potrace 1.11, written by Peter Selinger 2001-2013
</metadata>
<g transform="translate(0.000000,300.000000) scale(0.100000,-0.100000)"
fill="#000000" stroke="none">
<path d="M0 1500 l0 -1500 1500 0 1500 0 0 1500 0 1500 -1500 0 -1500 0 0
-1500z m210 928 c20 -79 103 -392 279 -1053 52 -197 79 -297 131 -495 63 -243
60 -234 70 -224 4 5 19 54 34 109 14 55 46 177 71 270 25 94 57 215 71 270 14
55 33 123 40 150 8 28 46 169 84 315 208 791 176 694 228 698 51 4 51 3 18
-116 -22 -79 -42 -152 -126 -472 -38 -145 -112 -426 -160 -605 -22 -82 -60
-226 -85 -320 -151 -572 -128 -505 -175 -505 -27 0 -42 5 -49 18 -5 9 -26 80
-46 157 -20 77 -43 165 -51 195 -8 30 -33 125 -56 210 -42 161 -103 392 -156
590 -17 63 -54 203 -82 310 -85 324 -101 382 -121 454 -10 38 -16 73 -13 77 3
5 23 9 44 9 38 0 40 -2 50 -42z m181 0 c18 -70 56 -213 99 -377 23 -85 50
-188 61 -230 11 -42 59 -222 105 -401 47 -178 87 -327 90 -331 6 -10 -30 -159
-39 -159 -10 0 0 -35 -197 710 -64 243 -113 430 -188 712 -16 59 -27 110 -24
113 3 3 22 5 43 5 36 0 39 -2 50 -42z m179 5 c18 -68 57 -215 105 -398 26 -99
60 -227 75 -285 15 -58 42 -159 59 -225 l31 -120 -18 -65 c-10 -36 -23 -64
-28 -63 -8 3 -26 63 -106 368 -17 66 -48 183 -68 260 -20 77 -52 196 -70 265
-18 69 -42 162 -55 207 -12 45 -20 85 -17 88 3 3 22 5 43 5 36 0 39 -3 49 -37z
m182 2 c4 -16 23 -88 42 -160 19 -71 57 -217 86 -323 l51 -194 -20 -70 c-11
-39 -22 -73 -25 -76 -7 -7 -9 0 -56 178 -22 85 -53 205 -69 265 -78 295 -101
385 -101 400 0 13 9 16 42 13 37 -3 43 -7 50 -33z m688 23 c0 -12 -21 -94
-167 -643 -40 -154 -91 -347 -113 -430 -22 -82 -73 -276 -114 -430 -41 -154
-87 -327 -102 -385 -15 -58 -32 -108 -38 -112 -6 -4 -26 -8 -43 -8 -41 0 -41
4 -4 140 16 58 50 186 76 285 26 99 64 243 85 320 21 77 59 221 85 320 26 99
60 227 75 285 16 58 61 227 100 375 39 149 73 276 75 283 6 16 85 16 85 0z
m180 -6 c0 -9 -15 -73 -34 -142 -18 -69 -53 -197 -76 -285 -23 -88 -57 -216
-75 -285 -18 -69 -52 -197 -75 -285 -23 -88 -53 -198 -65 -245 -13 -47 -44
-166 -70 -265 -26 -99 -66 -250 -89 -335 l-41 -155 -43 -3 c-51 -4 -51 -3 -18
116 13 48 45 168 71 267 26 99 78 295 115 435 38 140 83 309 100 375 28 106
46 175 95 360 8 28 36 138 65 245 28 107 53 201 55 208 3 7 21 12 45 12 31 0
40 -4 40 -18z m209 -49 c205 -708 210 -726 216 -731 8 -8 7 -11 151 538 72
273 64 254 112 258 33 2 42 0 42 -12 0 -9 -20 -91 -45 -183 -25 -93 -56 -211
-70 -263 -14 -52 -63 -239 -110 -415 -149 -563 -174 -657 -219 -825 -24 -91
-52 -198 -62 -238 -15 -58 -23 -74 -40 -78 -32 -8 -66 -1 -75 16 -5 8 -49 157
-99 330 -51 173 -101 346 -112 384 -11 38 -23 65 -27 60 -4 -5 -23 -65 -41
-134 -18 -69 -45 -172 -60 -230 -16 -58 -45 -168 -64 -245 -49 -190 -48 -187
-94 -183 -35 3 -37 5 -34 33 2 17 23 102 46 190 24 88 58 216 76 285 18 69 49
188 70 265 21 77 59 221 85 320 26 99 60 227 75 285 16 58 54 202 85 320 31
118 63 239 72 268 l14 52 44 0 44 0 20 -67z m696 30 c-4 -21 -38 -155 -76
-298 -38 -143 -90 -339 -115 -435 -25 -96 -57 -213 -69 -260 -13 -47 -44 -166
-70 -265 -42 -161 -68 -258 -162 -610 -14 -55 -31 -103 -37 -107 -21 -14 -76
-9 -76 7 0 8 13 63 29 122 16 60 68 257 116 438 48 182 100 377 115 435 56
208 141 530 200 755 34 127 63 236 65 243 3 7 22 12 46 12 l41 0 -7 -37z m185
21 c0 -15 -115 -463 -145 -564 -7 -25 -46 -169 -85 -320 -40 -151 -91 -347
-115 -435 -23 -88 -64 -241 -90 -340 -96 -367 -86 -340 -124 -343 -63 -6 -66
-31 59 438 16 58 63 236 105 395 42 160 98 373 125 475 28 102 79 298 115 435
37 138 68 256 70 263 3 7 21 12 45 12 30 0 40 -4 40 -16z m183 9 c4 -7 -65
-276 -217 -843 -56 -209 -160 -603 -196 -740 -80 -309 -101 -387 -110 -408 -8
-19 -16 -23 -48 -20 -34 3 -37 5 -34 32 2 16 23 102 47 190 23 89 75 285 115
436 40 151 92 349 116 440 24 91 56 210 70 265 15 55 37 138 49 185 13 47 40
148 60 225 68 262 61 245 105 245 21 0 41 -3 43 -7z"/>
<path d="M1757 2263 c-2 -5 -12 -37 -21 -73 l-18 -65 85 -290 c46 -159 99
-341 117 -403 18 -62 36 -109 40 -105 4 4 15 42 24 83 l18 75 -108 370 c-59
204 -109 380 -112 393 -4 22 -17 29 -25 15z"/>
<path d="M1667 1923 c-2 -5 -12 -37 -21 -73 l-17 -65 35 -120 c19 -66 68 -237
110 -381 99 -342 90 -321 109 -256 31 104 31 104 -42 357 -39 132 -90 309
-113 392 -40 141 -50 165 -61 146z"/>
<path d="M1577 1583 c-2 -4 -12 -38 -21 -75 l-17 -68 40 -138 c21 -75 71 -250
111 -387 88 -310 79 -284 90 -265 4 8 15 43 24 78 15 57 15 67 1 120 -9 31
-20 71 -24 87 -5 17 -44 149 -86 295 -43 146 -82 283 -88 305 -11 43 -22 62
-30 48z"/>
</g>
</svg>
