<?xml version="1.0" standalone="no"?>
<!DOCTYPE svg PUBLIC "-//W3C//DTD SVG 20010904//EN"
 "http://www.w3.org/TR/2001/REC-SVG-20010904/DTD/svg10.dtd">
<svg version="1.0" xmlns="http://www.w3.org/2000/svg"
 width="300.000000pt" height="300.000000pt" viewBox="0 0 300.000000 300.000000"
 preserveAspectRatio="xMidYMid meet">
<metadata>
Created by potrace 1.11, written by Peter Selinger 2001-2013
</metadata>
<g transform="translate(0.000000,300.000000) scale(0.100000,-0.100000)"
fill="#000000" stroke="none">
<path d="M735 2871 c-54 -25 -92 -62 -115 -113 -19 -41 -20 -71 -20 -588 0
-506 2 -548 19 -585 23 -51 89 -111 138 -124 22 -7 146 -11 301 -11 144 0 262
-4 262 -8 0 -5 -5 -34 -11 -65 l-12 -57 -61 0 c-35 0 -67 -5 -74 -12 -16 -16
-16 -150 0 -166 17 -17 659 -17 676 0 16 16 16 150 0 166 -7 7 -39 12 -74 12
l-61 0 -12 57 c-6 31 -11 60 -11 65 0 4 118 8 263 8 154 0 278 4 300 11 49 13
115 73 138 124 17 37 19 79 19 582 0 356 -4 551 -11 570 -21 56 -61 102 -112
128 l-51 25 -725 0 c-684 0 -728 -2 -766 -19z m1502 -145 l28 -24 -1 -309 c0
-169 -1 -408 -2 -531 l-2 -223 -26 -24 -27 -25 -709 0 -709 0 -24 25 c-25 24
-25 26 -25 212 -1 103 -3 327 -6 496 -3 169 -3 323 0 342 4 18 16 45 27 59
l20 26 714 0 714 0 28 -24z m-632 -1298 c3 -13 9 -42 14 -65 l9 -43 -128 0
-127 0 9 53 c5 28 11 58 13 65 3 8 33 12 104 12 96 0 101 -1 106 -22z m165
-203 c0 -13 -37 -15 -270 -15 -233 0 -270 2 -270 15 0 13 37 15 270 15 233 0
270 -2 270 -15z"/>
<path d="M1139 2377 c-63 -67 -126 -137 -139 -154 l-24 -33 24 -32 c13 -18 76
-88 139 -155 118 -125 147 -143 179 -111 29 29 12 60 -99 179 l-111 119 111
120 c111 119 128 149 99 178 -32 32 -61 14 -179 -111z"/>
<path d="M1568 2488 c-16 -13 -218 -532 -218 -560 0 -36 66 -63 87 -35 14 17
213 539 213 558 0 19 -31 49 -51 49 -9 0 -22 -6 -31 -12z"/>
<path d="M1682 2488 c-29 -29 -12 -59 99 -178 l111 -120 -111 -119 c-111 -119
-128 -150 -99 -179 32 -32 61 -14 179 111 63 67 126 137 139 155 l24 32 -24
33 c-13 17 -76 87 -139 154 -118 125 -147 143 -179 111z"/>
<path d="M1620 1016 c0 -13 -3 -38 -6 -55 -6 -28 -4 -31 18 -31 22 0 26 6 35
55 l10 55 -29 0 c-23 0 -28 -4 -28 -24z"/>
<path d="M2360 1003 c0 -5 -12 -72 -26 -151 -14 -78 -23 -149 -20 -157 10 -26
52 -40 81 -27 28 13 36 62 10 62 -11 0 -14 7 -11 23 3 12 12 63 21 112 9 50
18 102 21 118 5 26 4 27 -35 27 -23 0 -41 -3 -41 -7z"/>
<path d="M120 830 l0 -160 69 0 69 0 22 73 c11 39 23 77 25 82 2 6 3 -27 2
-73 l-2 -83 69 3 68 3 48 135 c26 74 50 145 54 158 7 21 4 22 -38 22 l-45 0
-40 -122 -39 -123 -1 123 -1 122 -44 0 -44 0 -40 -122 -40 -123 -1 123 -1 122
-45 0 -45 0 0 -160z"/>
<path d="M2065 968 c-2 -13 -15 -85 -29 -160 l-23 -138 98 0 c90 0 100 2 128
26 38 31 50 84 28 118 -14 21 -14 25 -1 38 25 25 30 95 9 118 -16 17 -31 20
-111 20 -89 0 -94 -1 -99 -22z m133 -75 c-2 -23 -8 -29 -35 -31 -24 -2 -33 1
-33 12 0 32 13 46 42 46 26 0 29 -3 26 -27z m-4 -108 c8 -21 -21 -45 -55 -45
-29 0 -35 12 -23 44 8 21 70 22 78 1z"/>
<path d="M565 878 c-11 -35 -25 -123 -25 -157 0 -27 5 -41 16 -45 15 -6 15 -9
-5 -29 -11 -13 -21 -35 -21 -49 0 -76 135 -78 184 -3 13 19 64 247 66 293 0 1
-18 2 -39 2 l-40 0 -12 -75 c-9 -59 -16 -76 -31 -81 -33 -10 -40 8 -29 72 6
32 11 64 11 71 0 17 -69 18 -75 1z m95 -217 c0 -10 -8 -29 -18 -41 -16 -20
-19 -20 -31 -6 -11 13 -9 19 15 41 32 30 34 30 34 6z"/>
<path d="M836 869 c-41 -32 -64 -162 -33 -187 24 -20 64 -24 93 -9 24 13 30
12 55 -1 37 -22 79 -4 79 33 0 16 -6 25 -15 25 -8 0 -15 2 -15 5 0 4 15 82 25
132 5 20 2 21 -79 21 -70 1 -89 -3 -110 -19z m96 -79 c-4 -41 -24 -65 -46 -57
-21 8 -21 61 0 82 27 27 49 15 46 -25z"/>
<path d="M1081 838 c-6 -29 -13 -71 -17 -93 -3 -22 -8 -48 -11 -57 -4 -15 2
-18 35 -18 44 0 44 1 57 92 7 49 26 75 45 63 8 -5 9 -28 5 -70 -7 -61 -6 -64
20 -81 37 -24 79 -10 83 29 2 19 -1 27 -12 27 -12 0 -14 12 -9 71 5 55 3 73
-8 80 -19 12 -66 11 -90 -1 -13 -7 -19 -7 -19 0 0 5 -15 10 -34 10 -34 0 -35
-1 -45 -52z"/>
<path d="M1366 858 c-41 -41 -57 -125 -32 -163 40 -61 196 -27 196 42 0 16
-54 17 -79 1 -22 -13 -51 -4 -51 16 0 12 16 16 73 18 l72 3 3 37 c5 55 -23 78
-94 78 -50 0 -60 -4 -88 -32z m104 -43 c0 -10 -10 -15 -31 -15 -27 0 -30 2
-19 15 7 8 21 15 31 15 11 0 19 -7 19 -15z"/>
<path d="M1699 861 c-51 -52 -32 -100 44 -108 33 -4 47 -10 47 -20 0 -12 -7
-14 -27 -8 -16 3 -45 9 -66 12 -37 5 -38 4 -35 -23 4 -38 58 -59 123 -49 55 8
85 34 85 74 0 36 -13 47 -69 58 -53 10 -68 33 -22 33 17 0 31 -5 31 -11 0 -6
16 -9 37 -7 44 4 55 28 27 59 -13 15 -31 19 -81 19 -58 0 -68 -3 -94 -29z"/>
<path d="M2513 880 c-35 -14 -55 -55 -61 -125 l-5 -65 39 -16 c39 -16 97 -14
135 7 26 14 45 55 54 115 6 46 4 54 -16 73 -17 16 -35 21 -73 20 -28 0 -61 -4
-73 -9z m80 -64 c3 -8 1 -31 -4 -50 -8 -29 -15 -36 -34 -36 -20 0 -25 5 -25
24 0 41 18 76 39 76 10 0 21 -6 24 -14z"/>
<path d="M2757 879 c-42 -25 -71 -151 -43 -193 14 -22 13 -25 -4 -41 -29 -26
-26 -71 5 -91 55 -36 148 -1 174 64 9 23 51 240 51 263 0 11 -162 10 -183 -2z
m89 -63 c3 -7 1 -29 -4 -47 -6 -27 -13 -34 -33 -34 -21 0 -24 4 -21 34 1 19 7
41 14 48 14 17 37 17 44 -1z m-27 -168 c-9 -35 -29 -52 -42 -39 -19 19 7 54
50 70 1 1 -2 -13 -8 -31z"/>
<path d="M628 374 c-12 -11 -10 -162 2 -169 6 -4 10 10 10 34 l0 41 60 0 60 0
0 -40 c0 -22 5 -40 10 -40 6 0 10 37 10 90 0 53 -4 90 -10 90 -5 0 -10 -18
-10 -40 l0 -40 -59 0 -60 0 -3 41 c-2 22 -6 37 -10 33z"/>
<path d="M870 306 c0 -66 3 -77 22 -90 33 -23 75 -20 103 9 21 20 25 34 25 84
0 33 -4 63 -10 66 -6 4 -10 -18 -10 -59 0 -73 -14 -96 -59 -96 -41 0 -51 17
-51 86 0 35 -4 66 -10 69 -6 4 -10 -21 -10 -69z"/>
<path d="M1125 305 c-20 -44 -34 -86 -31 -95 3 -11 6 -9 11 8 6 19 14 22 60
22 46 0 54 -3 60 -22 3 -13 9 -18 11 -11 5 12 -50 151 -66 167 -5 5 -24 -23
-45 -69z m61 0 c19 -46 19 -45 -21 -45 -19 0 -35 2 -35 5 0 12 29 75 35 75 3
0 13 -16 21 -35z"/>
<path d="M1317 373 c-11 -10 -8 -161 3 -168 6 -4 10 27 10 84 0 91 -1 97 -13
84z"/>
<path d="M1420 290 l0 -90 65 0 c37 0 65 4 65 10 0 6 -25 10 -55 10 -54 0 -55
0 -55 30 0 28 2 30 40 30 22 0 40 5 40 10 0 6 -18 10 -40 10 -38 0 -40 2 -40
30 0 30 1 30 55 30 30 0 55 5 55 10 0 6 -28 10 -65 10 l-65 0 0 -90z"/>
<path d="M1630 290 c0 -53 4 -90 10 -90 6 0 10 30 10 71 l0 72 57 -72 c31 -39
60 -71 65 -71 4 0 8 40 8 90 0 107 -18 122 -22 18 l-3 -71 -54 71 c-30 40 -59
72 -63 72 -4 0 -8 -40 -8 -90z"/>
<path d="M1979 351 c-20 -20 -29 -39 -29 -61 0 -61 74 -107 134 -84 31 12 15
21 -28 17 -53 -6 -86 19 -86 67 0 48 33 73 86 67 46 -5 60 6 22 17 -45 12 -70
6 -99 -23z"/>
<path d="M2211 354 c-65 -54 -22 -154 66 -154 46 0 93 45 93 90 0 22 -9 41
-29 61 -39 38 -87 39 -130 3z m119 -14 c45 -45 11 -120 -55 -120 -44 0 -75 29
-75 70 0 41 31 70 75 70 22 0 43 -8 55 -20z"/>
<path d="M1860 215 c0 -8 5 -15 10 -15 6 0 10 7 10 15 0 8 -4 15 -10 15 -5 0
-10 -7 -10 -15z"/>
</g>
</svg>
